<svg
	xmlns="http://www.w3.org/2000/svg"
	width="32"
	height="33"
	viewBox="0 0 32 33"
	fill="none">
	<g clip-path="url(#clip0_370_874)">
		<path
			d="M31.6386 23.6851L28.3673 22.0168L26.2854 16.4929C26.2609 16.4276 26.2234 16.3681 26.1754 16.3183C26.1273 16.2684 26.0697 16.2291 26.0061 16.203L13.0881 10.936C12.9978 10.8993 12.8989 10.8903 12.8037 10.9102C12.7084 10.9301 12.621 10.978 12.552 11.0479L10.8291 12.8052C10.7615 12.8756 10.7153 12.9645 10.6963 13.0611C10.6773 13.1577 10.6862 13.2579 10.7219 13.3495L15.8856 26.5259C15.9113 26.5908 15.9497 26.6495 15.9986 26.6985C16.0475 26.7475 16.1058 26.7857 16.1699 26.8107L21.5854 28.9343L23.2211 32.271C23.2555 32.3446 23.3068 32.4087 23.3706 32.4578C23.4344 32.5069 23.5088 32.5397 23.5876 32.5533C23.6141 32.5558 23.6408 32.5558 23.6674 32.5533C23.7994 32.5528 23.9258 32.4988 24.0189 32.4033L31.7683 24.499C31.8253 24.4428 31.8684 24.3736 31.894 24.2971C31.9196 24.2206 31.9269 24.139 31.9154 24.059C31.902 23.9786 31.8699 23.9027 31.8217 23.8376C31.7735 23.7726 31.7107 23.7203 31.6386 23.6851ZM11.7666 13.2834L12.0434 13.0036L18.4737 19.5626C18.0499 20.1751 17.8669 20.9275 17.9608 21.671C18.0548 22.4146 18.4188 23.0951 18.9809 23.578C19.5431 24.061 20.2624 24.3112 20.9968 24.2792C21.7311 24.2471 22.4269 23.9353 22.9466 23.4051C23.4663 22.875 23.7721 22.1653 23.8034 21.4163C23.8348 20.6673 23.5895 19.9336 23.1161 19.3602C22.6426 18.7868 21.9754 18.4155 21.2465 18.3197C20.5175 18.2239 19.7798 18.4106 19.1793 18.8428L12.749 12.2839L13.0233 12.0016L25.4327 17.0651L27.3899 22.2584L21.8223 27.9374L16.7309 25.941L11.7666 13.2834ZM20.8698 19.3108C21.318 19.3115 21.7521 19.4706 22.0981 19.7611C22.4442 20.0516 22.6808 20.4556 22.7676 20.904C22.8544 21.3525 22.7861 21.8178 22.5743 22.2207C22.3625 22.6236 22.0203 22.9391 21.6061 23.1135C21.1918 23.2879 20.731 23.3104 20.3023 23.1772C19.8736 23.0439 19.5034 22.7632 19.2549 22.3828C19.0063 22.0024 18.8947 21.5459 18.9392 21.091C18.9836 20.6361 19.1813 20.211 19.4985 19.8881C19.8626 19.5179 20.3558 19.3103 20.8698 19.3108ZM23.8045 31.1851L22.5578 28.6419L28.0756 23.0137L30.569 24.2853L23.8045 31.1851Z"
			fill="#DEDAEA" />
		<path
			d="M9.53663 27.212C9.44127 27.1201 9.31504 27.0689 9.18382 27.0689C9.05261 27.0689 8.92637 27.1201 8.83101 27.212L8.1977 27.858C6.50766 25.5184 5.57532 22.6992 5.53062 19.7934C5.48593 16.8877 6.33111 14.0401 7.94837 11.6475C8.4329 11.9195 8.99079 12.0239 9.53842 11.9453C10.0861 11.8666 10.594 11.609 10.986 11.2111C11.378 10.8133 11.6331 10.2965 11.713 9.73833C11.7929 9.18014 11.6933 8.61058 11.4291 8.115C13.7747 6.4654 16.5665 5.60331 19.4153 5.6489C22.2641 5.69449 25.0279 6.64548 27.3217 8.36932L26.6784 9.00767C26.5857 9.10303 26.5337 9.23194 26.5338 9.36626C26.5334 9.4332 26.546 9.49956 26.5708 9.56153C26.5956 9.62351 26.6322 9.67987 26.6784 9.7274L28.8776 11.9527C28.971 12.0475 29.0974 12.1006 29.2291 12.1006C29.3609 12.1006 29.4872 12.0475 29.5807 11.9527L31.7674 9.72231C31.8137 9.67507 31.8505 9.61898 31.8756 9.55723C31.9007 9.49548 31.9136 9.42929 31.9136 9.36245C31.9136 9.2956 31.9007 9.22942 31.8756 9.16767C31.8505 9.10592 31.8137 9.04982 31.7674 9.00258L29.5807 6.77218C29.4872 6.67745 29.3609 6.62427 29.2291 6.62427C29.0974 6.62427 28.971 6.67745 28.8776 6.77218L28.0323 7.62925C25.9491 6.03031 23.4863 5.02574 20.8966 4.71869C18.3069 4.41164 15.6838 4.81317 13.2966 5.88205L16.1714 2.95735C16.4974 3.11622 16.868 3.15218 17.2175 3.05886C17.567 2.96553 17.8728 2.74895 18.0806 2.44754C18.2884 2.14613 18.3848 1.77937 18.3528 1.41233C18.3207 1.0453 18.1622 0.701708 17.9054 0.442523C17.6486 0.183338 17.3101 0.025312 16.95 -0.00351941C16.5898 -0.0323508 16.2313 0.069876 15.938 0.285025C15.6447 0.500175 15.4356 0.814337 15.3478 1.17178C15.26 1.52922 15.2992 1.90683 15.4583 2.23762L10.6063 7.19436C10.1136 6.85728 9.52153 6.70513 8.93112 6.76389C8.3407 6.82266 7.7886 7.08869 7.36913 7.51655C6.94966 7.94441 6.68884 8.50755 6.63123 9.10977C6.57362 9.712 6.72279 10.3159 7.05326 10.8184L2.19371 15.7675C1.86814 15.6057 1.49686 15.5669 1.14586 15.6579C0.794857 15.7489 0.486861 15.964 0.276601 16.2647C0.0663412 16.5655 -0.0325644 16.9326 -0.00254071 17.3007C0.027483 17.6689 0.184492 18.0142 0.440585 18.2755C0.696679 18.5367 1.03527 18.6968 1.3962 18.7275C1.75712 18.7581 2.117 18.6572 2.41189 18.4427C2.70678 18.2283 2.91757 17.9141 3.00682 17.5561C3.09606 17.1981 3.05798 16.8194 2.89933 16.4873L5.77417 13.5626C4.7252 15.9969 4.33029 18.6721 4.63001 21.3135C4.92972 23.9549 5.91325 26.4674 7.47962 28.593L6.63687 29.4551C6.54399 29.5504 6.49186 29.6794 6.49186 29.8137C6.49186 29.9481 6.54399 30.077 6.63687 30.1723L8.82353 32.4027C8.91662 32.4983 9.04306 32.5522 9.1751 32.5528C9.2409 32.5528 9.30606 32.5396 9.36683 32.5139C9.4276 32.4881 9.48276 32.4503 9.52915 32.4027L11.7183 30.1723C11.8112 30.077 11.8633 29.9481 11.8633 29.8137C11.8633 29.6794 11.8112 29.5504 11.7183 29.4551L9.53663 27.212ZM29.2341 7.84542L30.7152 9.35609L29.2341 10.8668L27.7531 9.35609L29.2341 7.84542ZM16.4557 1.1771C16.5298 1.1009 16.6244 1.04887 16.7275 1.02761C16.8307 1.00635 16.9377 1.01682 17.035 1.05769C17.1323 1.09856 17.2155 1.16799 17.274 1.25717C17.3326 1.34635 17.3638 1.45126 17.3638 1.55858C17.3638 1.66591 17.3326 1.77082 17.274 1.86C17.2155 1.94918 17.1323 2.0186 17.035 2.05948C16.9377 2.10035 16.8307 2.11082 16.7275 2.08956C16.6244 2.0683 16.5298 2.01627 16.4557 1.94007C16.4065 1.88999 16.3675 1.83053 16.3409 1.76507C16.3143 1.69961 16.3006 1.62944 16.3006 1.55858C16.3006 1.48772 16.3143 1.41756 16.3409 1.3521C16.3675 1.28664 16.4065 1.22718 16.4557 1.1771ZM8.07802 8.23962C8.22283 8.09121 8.39495 7.97344 8.5845 7.89309C8.77405 7.81273 8.9773 7.77136 9.18258 7.77136C9.38785 7.77136 9.5911 7.81273 9.78066 7.89309C9.97021 7.97344 10.1423 8.09121 10.2871 8.23962C10.506 8.46252 10.6552 8.74665 10.7157 9.05604C10.7762 9.36543 10.7454 9.68618 10.6271 9.97771C10.5089 10.2692 10.3085 10.5184 10.0514 10.6938C9.79424 10.8691 9.49188 10.9627 9.18258 10.9627C8.87327 10.9627 8.57092 10.8691 8.31378 10.6938C8.05663 10.5184 7.85626 10.2692 7.73801 9.97771C7.61976 9.68618 7.58894 9.36543 7.64947 9.05604C7.70999 8.74665 7.85914 8.46252 8.07802 8.23962ZM1.90449 17.5478C1.80268 17.6344 1.6728 17.679 1.54038 17.6729C1.40795 17.6668 1.28255 17.6104 1.18882 17.5148C1.09508 17.4192 1.03979 17.2913 1.03381 17.1562C1.02782 17.0211 1.07158 16.8887 1.15648 16.7848C1.25627 16.6848 1.39058 16.6288 1.53048 16.6288C1.67039 16.6288 1.8047 16.6848 1.90449 16.7848C1.95364 16.8349 1.99263 16.8944 2.01924 16.9598C2.04584 17.0253 2.05954 17.0955 2.05954 17.1663C2.05954 17.2372 2.04584 17.3073 2.01924 17.3728C1.99263 17.4383 1.95364 17.4977 1.90449 17.5478ZM9.18258 31.3142L7.70153 29.8036L9.18258 28.2929L10.6636 29.8036L9.18258 31.3142Z"
			fill="#DEDAEA" />
	</g>
	<defs>
		<clipPath id="clip0_370_874">
			<rect width="31.9149" height="32.5532" fill="white" />
		</clipPath>
	</defs>
</svg>
