<svg
  xmlns="http://www.w3.org/2000/svg"
  width="16"
  height="15"
  viewBox="0 0 16 15"
  fill="none"
>
  <path
    d="M3.46853 5.07422C3.87879 5.07422 4.22688 4.92995 4.51282 4.64142C4.80497 4.34662 4.95105 3.99223 4.95105 3.57825C4.95105 3.16427 4.80497 2.81302 4.51282 2.52449C4.22688 2.22968 3.87879 2.08228 3.46853 2.08228C3.05827 2.08228 2.70707 2.22968 2.41492 2.52449C2.12898 2.81302 1.98601 3.16427 1.98601 3.57825C1.98601 3.99223 2.12898 4.34662 2.41492 4.64142C2.70707 4.92995 3.05827 5.07422 3.46853 5.07422ZM6.93706 3.57825C6.93706 4.5442 6.59829 5.36902 5.92075 6.05271C5.24942 6.7364 4.43201 7.07825 3.46853 7.07825C2.51127 7.07825 1.69386 6.7364 1.01632 6.05271C0.338772 5.36902 0 4.5442 0 3.57825C0 2.6123 0.338772 1.78748 1.01632 1.10379C1.69386 0.420096 2.51127 0.0782503 3.46853 0.0782503C4.4258 0.0782503 5.2432 0.420096 5.92075 1.10379C6.59829 1.78748 6.93706 2.6123 6.93706 3.57825ZM14.014 10.4277C14.014 10.0137 13.8679 9.66248 13.5758 9.37395C13.2898 9.07915 12.9417 8.93174 12.5315 8.93174C12.1212 8.93174 11.77 9.07915 11.4779 9.37395C11.1919 9.66248 11.049 10.0137 11.049 10.4277C11.049 10.8417 11.1919 11.1961 11.4779 11.4909C11.77 11.7794 12.1212 11.9237 12.5315 11.9237C12.9417 11.9237 13.2898 11.7794 13.5758 11.4909C13.8679 11.1961 14.014 10.8417 14.014 10.4277ZM16 10.4277C16 11.3937 15.6612 12.2185 14.9837 12.9022C14.3061 13.5859 13.4887 13.9277 12.5315 13.9277C11.5742 13.9277 10.7568 13.5859 10.0793 12.9022C9.40171 12.2185 9.06294 11.3937 9.06294 10.4277C9.06294 9.45549 9.40171 8.63067 10.0793 7.95325C10.7568 7.26956 11.5742 6.92771 12.5315 6.92771C13.4887 6.92771 14.3061 7.26956 14.9837 7.95325C15.6612 8.63694 16 9.46176 16 10.4277ZM11.049 0.0123901H12.4662L4.9324 14.0124H3.48718L11.049 0.0123901Z"
    fill="#50D79B"
  />
</svg>
